<?xml version="1.0" encoding="UTF-8"?>
<svg enable-background="new 0 0 679.03 352.24" version="1.1" viewBox="0 0 679.03 352.24" xml:space="preserve" xmlns="http://www.w3.org/2000/svg" xmlns:xlink="https://www.w3.org/1999/xlink"><style type="text/css">.st0{clip-path:url(#SVGID_2_);}	.st1{clip-path:url(#SVGID_4_);fill:#DB1736;}	.st2{clip-path:url(#SVGID_4_);fill-rule:evenodd;clip-rule:evenodd;fill:#FCAF17;}	.st3{clip-path:url(#SVGID_4_);fill-rule:evenodd;clip-rule:evenodd;fill:#DB1736;}	.st4{fill:#DC1736;}	.st5{font-family:'Europa-Bold';}	.st6{font-size:49.4028px;}</style><g><g><clipPath><use xlink:href="#SVGID_1_"/></clipPath><g class="st0"><clipPath><use xlink:href="#SVGID_3_"/></clipPath><path class="st1" d="m676.95 244.53c-2.02-1.47-4.06-2.22-6.14-2.22-4.19 0-6.29 1.57-6.29 4.74 0 1.34 1.11 2.93 3.33 4.8l3.94 3.33c1.22 1.04 2.05 1.81 2.53 2.28 0.47 0.48 0.95 1.15 1.48 2 0.52 0.85 0.91 1.71 1.17 2.57 0.26 0.88 0.39 1.77 0.39 2.66 0 3.49-1.31 6.21-3.92 8.17-2.61 1.97-6 2.94-10.17 2.94-3.42 0-6.65-0.74-9.69-2.21l2.19-6.69c2.33 1.76 5.03 2.64 8.1 2.64 1.86 0 3.41-0.4 4.63-1.19s1.84-1.91 1.84-3.39c0-1.43-1.11-3.01-3.33-4.76l-4.09-3.25c-1.25-1.01-2.1-1.73-2.55-2.19-0.44-0.45-0.9-1.09-1.39-1.89-0.47-0.81-0.84-1.63-1.09-2.49-0.24-0.86-0.37-1.73-0.37-2.63 0-3.51 1.16-6.29 3.49-8.34 2.33-2.04 5.37-3.06 9.14-3.06 1.25 0 2.86 0.14 4.79 0.43 1.94 0.29 3.3 0.61 4.08 0.98l-2.07 6.77zm-35-1.59h-17.58l-1.59 8.78h12.6l-1.07 5.67h-12.61l-2.14 11.83h17.31l-1.12 5.94h-24.28l7.03-38.16h24.56l-1.11 5.94zm-42.31 0h-12.03l-5.88 32.21h-6.85l5.88-32.21h-12.13l1.09-5.95h31.04l-1.12 5.95zm-61.6-0.08l-1.96 10.67c1.02 0.12 1.94 0.17 2.74 0.17 6.55 0 9.84-2.08 9.84-6.25 0-1.75-0.63-3.01-1.89-3.74s-3.35-1.1-6.27-1.1c-0.24-0.01-1.06 0.08-2.46 0.25m7.79 15.39l8.51 16.9h-7.63l-7.29-15.78c-1.18-0.02-2.62-0.09-4.35-0.21l-2.94 15.99h-6.99l6.99-38.16c5.06-0.25 8.39-0.38 9.98-0.38 4.11 0 7.36 0.79 9.75 2.38 2.39 1.58 3.58 3.88 3.58 6.88 0 3.06-0.88 5.71-2.62 7.95-1.75 2.26-4.08 3.72-6.99 4.43m-60.3 2c0 2.94 0.58 5.27 1.75 7.01 1.16 1.74 2.87 2.6 5.11 2.6 4.12 0 7.39-1.85 9.78-5.57 2.4-3.72 3.59-8.14 3.59-13.3 0-5.84-2.57-8.75-7.71-8.75-3.61 0-6.59 1.91-8.97 5.72-2.37 3.82-3.55 7.92-3.55 12.29m-7.03 0.7c0-6.78 1.86-12.58 5.56-17.4 3.71-4.82 8.53-7.23 14.47-7.23 4.57 0 8.07 1.21 10.54 3.63s3.7 5.92 3.7 10.51c0 7.51-1.9 13.62-5.68 18.31s-8.97 7.02-15.55 7.02c-4.03 0-7.21-1.36-9.54-4.06-2.33-2.72-3.5-6.31-3.5-10.78m-30.02-18.17l-2.27 12.58c0.89 0.25 2.02 0.37 3.39 0.37 2.95 0 5.3-0.64 7.03-1.9 1.73-1.27 2.6-3.09 2.6-5.47 0-4.01-2.28-6.02-6.83-6.02-1.2 0-2.52 0.14-3.92 0.44m-3.34 18.36l-2.58 14.01h-6.92l7.18-38.1c3.63-0.39 6.41-0.58 8.32-0.58 10.08 0 15.12 3.79 15.12 11.39 0 4.26-1.52 7.62-4.59 10.06-3.07 2.43-7.04 3.66-11.92 3.66-1.56 0-3.1-0.14-4.61-0.44m-23.49-16.61c-2.02-1.47-4.06-2.22-6.14-2.22-4.19 0-6.28 1.57-6.28 4.74 0 1.34 1.11 2.93 3.34 4.8l3.94 3.33c1.21 1.04 2.05 1.81 2.52 2.28 0.47 0.48 0.96 1.15 1.48 2 0.53 0.85 0.91 1.71 1.18 2.57 0.26 0.88 0.39 1.77 0.39 2.66 0 3.49-1.31 6.21-3.92 8.17-2.61 1.97-6 2.94-10.17 2.94-3.42 0-6.65-0.74-9.69-2.21l2.19-6.69c2.32 1.76 5.03 2.64 8.1 2.64 1.86 0 3.41-0.4 4.62-1.19 1.23-0.79 1.84-1.91 1.84-3.39 0-1.43-1.11-3.01-3.33-4.76l-4.08-3.25c-1.25-1.01-2.1-1.73-2.55-2.19-0.44-0.45-0.9-1.09-1.39-1.89-0.47-0.81-0.84-1.63-1.09-2.49-0.24-0.86-0.37-1.73-0.37-2.63 0-3.51 1.17-6.29 3.49-8.34 2.33-2.04 5.37-3.06 9.14-3.06 1.25 0 2.86 0.14 4.79 0.43 1.95 0.29 3.31 0.61 4.09 0.98l-2.1 6.77zm-41.13 31.15h-2.63l-14.06-24.67-4.22 24.14h-6.72l7-38.16h3.13l13.78 23.65 4.14-23.65h6.69l-7.11 38.69zm-52.38-27.61l-7.84 14.25h10l-2.16-14.25zm4.11 27.08l-1.19-7.76h-13.64l-4.49 7.76h-7.05l23.17-38.68h2.42l7.83 38.68h-7.05zm-53.37-32.29l-1.95 10.67c1.02 0.12 1.94 0.17 2.74 0.17 6.55 0 9.84-2.08 9.84-6.25 0-1.75-0.63-3.01-1.88-3.74-1.26-0.73-3.36-1.1-6.27-1.1-0.25-0.01-1.08 0.08-2.48 0.25m7.78 15.39l8.52 16.9h-7.63l-7.29-15.78c-1.18-0.02-2.63-0.09-4.34-0.21l-2.95 15.99h-6.98l6.98-38.16c5.07-0.25 8.39-0.38 9.98-0.38 4.11 0 7.36 0.79 9.75 2.38 2.38 1.58 3.58 3.88 3.58 6.88 0 3.06-0.88 5.71-2.63 7.95-1.74 2.26-4.07 3.72-6.99 4.43m-32.75-15.31h-12.03l-5.89 32.21h-6.85l5.88-32.21h-12.14l1.09-5.95h31.04l-1.1 5.95z"/><path class="st2" d="m182.38 72.74c17.7-20.77 46.52-57.3 105.61-65.78 111.87-16.64 126.12 16.51 320.71 7.02-18.81 12.06-29.53 18.94-51.48 22.61-46.04 7.67-107.63 10.21-142.98 7.34 21.06 7.42 48.49 9.12 115.78 2.98-21.11 13.54-39.67 20.51-64.01 24.07-43.9 6.42-91.91 7.14-132.71-0.23 20.09 10.37 73.87 11.93 108.84 9.76-31.2 20-65.08 19.98-99.82 20-61.56 0.04-146.75-11.18-158.25 15.63 20.21-83.08 124.81-102.01 166.19-97.53-98.07-11.71-137.97 28.7-167.88 54.13"/><path class="st3" d="m132.86 94.57c7.8 33.33 15.19 66.65 22.28 100.23 4.81 22.76 0.23 21.04 24.5 21.04h18.72c25.62 0 21.51 3.32 14.59-20.62-12.13-42-24.29-83.99-36.25-126.07-4.05-14.23-1.65-12.45-17.74-12.45h-27.45c-17.99 0-15.24-3.04-26.79 12.88-31.92 44.02-63.84 88.05-95.76 132.07-12.74 17.55-13.24 14.18 7.21 14.18h17.95c15.62 0 18.31-0.03 22.72-6.59 24.32-30.13 55.44-36.77 85.99-37.88l-1.03-3.36-58.18-0.11c16.3-24.5 32.8-48.89 49.24-73.32"/><path class="st3" d="m532.82 118.8c6.24 26.68 12.17 53.36 17.84 80.25 3.84 18.23 0.17 16.84 19.61 16.84h14.99c20.51 0 17.22 2.66 11.68-16.51-9.72-33.62-19.44-67.24-29.02-100.93-3.24-11.39-1.32-9.97-14.2-9.97h-21.98c-14.4 0-12.2-2.43-21.45 10.32-25.56 35.25-51.11 70.49-76.66 105.74-10.2 14.05-10.6 11.34 5.77 11.34h14.38c12.51 0 14.66-0.02 18.19-5.27 19.48-24.12 44.39-29.44 68.84-30.32l-0.83-2.7-46.59-0.09c13.05-19.62 26.27-39.14 39.43-58.7"/><path class="st3" d="m340.56 196.4c5.28-25.61 12.66-61.24 18.68-90.43 27.56-0.43 54.38-2.95 79.52-17.84l22.19 0.03c17.81 0 15.65-2.09 11.97 15.66-3.34 16.14-0.99 12.89-17.46 12.89h-55.01l-4.94 23.86h47.64c17.07 0 17.77-4.57 14.13 13.07-3.61 17.44-0.36 14.73-17.83 14.73h-49.68c-1.84 8.9-3.68 17.79-5.52 26.69-4.56 22.94-0.63 20.73-26.37 20.73-24.54-0.02-22.06 2.86-17.32-19.39"/><path class="st3" d="m334.15 200.12c-4.11 17.9-1.99 15.66-22.24 15.66h-67.85c-25.45 0-23.72 3.2-18.68-19.92 4.75-22.7 13.47-63.34 19.54-92.04 13.53-0.22 28.28 0.2 43.19 0.73l-17.73 83.51h47.69c17.24 0.01 19.59-4.89 16.08 12.06"/></g></g></g></svg>
